<svg version="1.2" xmlns="http://www.w3.org/2000/svg" viewBox="0 0 596 565" width="596" height="565">
	<style>
		.s0 { fill: #11ae6c } 
		.s1 { fill: #10a969 } 
		.s2 { fill: #0fa366 } 
		.s3 { fill: #0b965e } 
		.s4 { opacity: 1;fill: #088252 } 
		.s5 { fill: #078453 } 
		.s6 { fill: #0a8656 } 
		.s7 { fill: #0d9f63 } 
		.s8 { fill: #0d9b61 } 
		.s9 { fill: #0b8b58 } 
		.s10 { fill: #0d905b } 
	</style>
	<g id="Background">
		<path id="Path 2" class="s0" d="m265.5 9.09c-4.4 0.46-12.28 1.54-17.5 2.42-5.22 0.87-14.68 2.73-21 4.14-6.32 1.41-17.57 4.52-25 6.91-7.43 2.38-18.45 6.4-24.5 8.93-6.05 2.53-16.18 7.32-22.5 10.64-6.32 3.32-17.8 10.24-25.5 15.38-7.7 5.13-19.63 14.02-26.5 19.74-6.88 5.73-15.88 13.98-20 18.33-4.13 4.36-9.3 10.07-11.5 12.69-2.2 2.63-3.78 4.9-3.5 5.04 0.28 0.15 2.19 1.71 4.25 3.48 2.06 1.77 6.11 3.88 9 4.7 5.11 1.46 5.31 1.44 7.75-0.82 1.87-1.73 4.52-2.6 10.5-3.41 4.4-0.6 10.92-2.06 14.5-3.24 3.58-1.19 8.97-3.62 12-5.41 3.03-1.79 8.54-4.46 12.25-5.93 3.71-1.47 7.76-2.69 9-2.71 1.24-0.02 3.49 0.54 5 1.25 1.51 0.7 2.41 1.67 2 2.15-0.41 0.47 2.4-1.16 6.25-3.64 3.85-2.47 11.5-6.95 17-9.95 5.5-2.99 15.4-7.74 22-10.55 6.6-2.82 17.18-6.68 23.5-8.58 6.32-1.91 16.9-4.6 23.5-5.98 6.6-1.38 19.2-3.32 28-4.32 8.8-0.99 14.88-2.04 13.5-2.33-1.38-0.28-2.61-1.08-2.75-1.77-0.14-0.69 0.4-2.71 1.19-4.5 0.79-1.79 1.24-4.26 1-5.5-0.4-2.04-0.05-2.26 3.81-2.32l4.25-0.08c-6.61-2.6-8.52-3.69-8.51-4.1 0-0.41 1.25-1.03 2.76-1.37 1.51-0.34 3.88-0.37 5.25-0.07 1.74 0.39 6-1.06 14-4.74 6.32-2.91 13.07-5.59 15-5.96 1.93-0.37 4.4-1.34 5.5-2.16 1.1-0.82 1.55-1.49 1-1.51-0.55-0.01 0.51-1.69 2.35-3.73 2.2-2.43 3.24-4.48 3-5.94-0.19-1.23 0.1-2.25 0.65-2.28 0.55-0.03 0.32-0.44-0.5-0.91-0.82-0.48-6.11-1.36-11.75-1.97-5.64-0.61-19.36-1.05-30.5-0.98-11.14 0.08-23.85 0.51-28.25 0.96zm266.92 106.61c-52.55 17.33-58.7 19.57-56.92 20.76 1.1 0.73 7.85 4.58 15 8.56 7.15 3.97 13.45 7.59 14 8.03 0.63 0.51 0.22 1.84-1.14 3.63l-2.15 2.82c7.23 0.41 9.35-0.03 10.36-1 0.87-0.82 2.67-1.5 4-1.5 1.34 0 5.24-1.5 8.68-3.33 3.44-1.83 8.38-3.96 10.98-4.75 2.6-0.78 5.08-1.11 5.5-0.73 0.42 0.38 2.12 0.18 3.77-0.44 1.65-0.62 3.67-2.01 4.5-3.08 1.37-1.78 2.02-1.86 7.5-0.89 3.3 0.58 9.15 1.95 13 3.02 3.85 1.08 8.24 2.24 9.75 2.58 2.27 0.51 2.86 0.22 3.39-1.63 0.36-1.24 2.57-13.27 4.91-26.75 2.34-13.47 4.15-24.55 4.02-24.61-0.12-0.07-26.74 8.62-59.15 19.31zm-175.92 5.91c-5.5 1.36-14.5 4.06-20 6.01-5.5 1.94-16.3 6.62-24 10.39-7.7 3.78-19.63 10.55-26.5 15.06-6.88 4.5-15.17 10.27-18.43 12.81-3.27 2.54-6.27 4.85-6.67 5.12-0.4 0.28-0.88 1.08-1.06 1.8-0.24 0.93 1.5 1.44 6.16 1.8 4.95 0.38 7.57 1.19 11 3.43 3.59 2.35 6.01 3.06 12 3.53 4.12 0.33 8.01 0.67 8.64 0.77 0.63 0.09 4.91-3.83 9.5-8.71 4.6-4.89 11.06-10.91 14.36-13.39 3.3-2.48 9.6-6.24 14-8.36 4.4-2.13 8.35-3.53 8.78-3.12 0.42 0.41 1.04 5.25 1.37 10.75 0.45 7.62 0.83 9.52 1.59 8 0.55-1.1 0.84-3.05 0.63-4.33-0.29-1.82 0.39-2.72 3.13-4.14 1.92-1 5.02-1.98 6.87-2.18 2.12-0.22 4.64-1.56 6.75-3.6 1.86-1.79 4.05-3.25 4.88-3.25 0.93 0 1.5 0.94 1.5 2.5 0 1.38 0.81 3.29 1.8 4.25 1 0.96 2.09 2.43 2.42 3.25 0.34 0.82 0.66-1.31 0.7-4.75 0.04-3.44-0.4-9.51-0.99-13.5-0.59-3.99-1.94-10.74-3-15-1.5-6.04-2.32-7.74-3.68-7.68-0.96 0.03-6.25 1.17-11.75 2.54zm-94.5 32.07c-1.93 0.2-10.25 1.5-18.5 2.89-8.25 1.4-19.95 3.65-26 5.01-6.05 1.36-15.95 3.82-22 5.48-6.05 1.66-17.3 5.07-25 7.59-7.7 2.52-20.53 7.18-28.5 10.37-7.98 3.18-17.54 7.18-21.25 8.88-3.71 1.71-6.75 3.33-6.75 3.6 0 0.28 0.9 0.28 2 0 1.5-0.37 2.5 0.38 4 3 1.1 1.93 2.79 3.91 3.75 4.41 1.16 0.6 2.6 0.45 4.25-0.45 1.84-1 4.76-1.19 11-0.74 7.73 0.55 8.91 0.39 13-1.81 2.47-1.32 6.07-3.87 8-5.65 3.2-2.97 4.05-3.24 10-3.23q6.5 0.02 11 2.02c2.47 1.1 5.17 1.99 6 1.97 0.82-0.02 2.51 0.64 3.75 1.47 1.43 0.96 2.05 2.15 1.71 3.26-0.3 0.96 0.17 2.43 1.05 3.25 0.87 0.82 1.56 2.51 1.53 3.75-0.02 1.24 0.3 2.26 0.71 2.27 0.41 0.01 2.77-0.69 5.25-1.57 2.72-0.96 9.23-1.76 16.5-2.04 6.6-0.25 12.45-0.92 13-1.49 0.55-0.57 1.45-2.79 2-4.93 0.76-2.94 0.69-4.02-0.25-4.44-0.69-0.3-2.15-0.55-3.25-0.55-1.11 0-2-0.67-2-1.5 0-0.82 1.01-1.77 2.25-2.11 1.84-0.49 1.93-0.67 0.5-1-0.96-0.21-1.98-1.07-2.25-1.89-0.28-0.82 1.3-3.75 3.5-6.5 2.53-3.17 5.01-5.19 6.75-5.52 1.51-0.28 4.66-0.95 7-1.5 2.34-0.54 6.39-0.97 9-0.95 2.61 0.01 4.43-0.32 4.04-0.75-0.39-0.43 1.52-5.17 4.25-10.53 2.73-5.36 4.96-9.97 4.96-10.25 0-0.28-0.34-0.43-0.75-0.34-0.41 0.09-2.33 0.32-4.25 0.52z"/>
		<path id="Path 3" class="s1" d="m336 10.92c0.82 0.58 1.05 1.07 0.5 1.08-0.55 0.02-0.84 1.04-0.65 2.27 0.24 1.46-0.8 3.51-3 5.94-1.84 2.04-2.9 3.72-2.35 3.73 0.55 0.02 0.1 0.69-1 1.51-1.1 0.82-3.57 1.79-5.5 2.16-1.93 0.37-8.68 3.05-15 5.96-8 3.68-12.26 5.13-14 4.74-1.38-0.3-3.74-0.27-5.25 0.07-1.51 0.34-2.76 0.96-2.76 1.37-0.01 0.41 1.9 1.5 4.25 2.43l4.26 1.67c-8.1 0.14-8.46 0.36-8.07 2.4 0.23 1.24-0.05 3.37-0.62 4.75-0.58 1.37-1.22 3.51-1.43 4.75-0.34 1.99 0.12 2.3 3.87 2.71 2.34 0.26 8.98 0.73 14.75 1.06 5.77 0.33 16.13 1.25 23 2.05 6.88 0.8 18.13 2.78 25 4.41 6.88 1.63 16.1 4.04 20.5 5.35 7.28 2.17 8.11 2.24 9.22 0.78 0.67-0.89 1.26-2.51 1.31-3.61 0.05-1.1 1.15-4.03 2.44-6.5 1.3-2.48 3.23-6.3 4.29-8.5 1.07-2.22 5.81-7.56 10.63-12 4.79-4.4 9.36-8.34 10.16-8.75 0.8-0.41 1.47-1.09 1.48-1.5 0.02-0.41-4.14-2.39-9.25-4.4-5.1-2.01-13.1-4.81-17.78-6.23-4.68-1.42-13.45-3.69-19.5-5.05-6.05-1.36-14.15-2.95-18-3.54-3.85-0.58-8.35-1.31-10-1.61-2.28-0.41-2.64-0.29-1.5 0.5zm-198.04 91.86c-3.59 1.5-8.99 4.14-12 5.89-3 1.74-8.39 4.14-11.96 5.33-3.58 1.19-10.1 2.66-14.5 3.26-5.98 0.81-8.63 1.68-10.5 3.41-2.41 2.23-2.68 2.27-7.5 0.9-2.75-0.79-7.03-3.06-9.5-5.06l-4.5-3.63c-3.49 4.36-8.04 10.79-12.36 17.12-4.32 6.32-8.59 12.85-9.47 14.5-1.52 2.83-1.5 3.11 0.39 5 1.11 1.1 2.27 3.35 2.59 5 0.31 1.65 0.07 4.69-0.54 6.75-0.61 2.06-1.79 4.09-2.62 4.5-0.83 0.41-2.07 1.88-2.76 3.25-0.68 1.38-2.82 3.29-4.74 4.26-1.92 0.96-4.51 1.86-5.75 2-1.8 0.19-2.91 1.79-5.4 7.74-1.72 4.13-4.64 12-6.49 17.5-1.86 5.5-4.49 14.95-5.85 21-1.36 6.05-2.48 11.56-2.49 12.25-0.01 0.87 0.37 0.94 1.24 0.24 0.69-0.55 6.87-5.65 13.75-11.32 6.87-5.68 18.35-14.59 25.5-19.81 7.15-5.21 15.47-11.11 18.5-13.1 3.71-2.44 5.58-4.37 5.76-5.94 0.14-1.28 1.38-3.33 2.75-4.57 1.37-1.24 3.5-2.3 4.74-2.37 1.24-0.06 2.59-0.06 3 0 0.41 0.07 2.66-2.92 4.98-6.63 2.33-3.71 7.6-11.47 11.71-17.25 4.3-6.05 12.79-15.82 20.02-23.05 6.9-6.9 16.36-15.43 21.04-18.94 4.68-3.52 8.8-6.87 9.18-7.45 0.37-0.58-0.53-1.64-2-2.34-1.48-0.71-3.81-1.25-5.18-1.22-1.38 0.03-5.44 1.28-9.04 2.78zm410.84 42.05c-0.72 1-2.65 2.33-4.3 2.94-1.65 0.61-3.35 0.8-3.77 0.42-0.42-0.38-2.9-0.05-5.5 0.73-2.6 0.79-7.54 2.92-10.98 4.75-3.44 1.83-7.34 3.33-8.68 3.33-1.33 0-3.13 0.68-4 1.5-0.86 0.82-3.03 1.43-4.82 1.35-1.79-0.08-3.93-0.08-4.75 0-0.83 0.08-4.21 3.41-7.52 7.4-3.32 3.99-6.68 8.15-7.47 9.25-0.79 1.1-1.01 1.68-0.48 1.28 0.53-0.39 2.21-0.06 3.72 0.75 1.51 0.81 3.54 1.48 4.5 1.5 0.96 0.02 2.65-0.87 3.75-1.97 1.69-1.69 3.32-2 10.5-1.98 4.67 0 14.13-0.97 21-2.16 6.88-1.2 16.1-2.39 20.5-2.65 5.78-0.35 8.83-0.08 11 0.97 1.65 0.8 5.84 2.09 9.31 2.86 3.47 0.77 6.48 1.18 6.69 0.9 0.21-0.28 1.3-5.45 2.44-11.5 1.14-6.05 2.29-12.35 2.56-14 0.27-1.65 0.16-2.45-0.25-1.77-0.58 0.94-2.97 0.64-10.25-1.29-5.23-1.39-11.3-2.93-13.5-3.44-2.2-0.5-4.99-0.93-6.2-0.96-1.21-0.02-2.79 0.78-3.5 1.79zm-184.1 8.42c-2.14 2.02-4.73 3.38-6.83 3.6-1.85 0.2-4.94 1.18-6.87 2.18-2.73 1.42-3.42 2.32-3.14 4.14 0.19 1.28-0.31 3.68-1.13 5.33-0.81 1.65-1.8 5.7-2.21 9-0.4 3.3-1.69 9.51-2.87 13.8-1.18 4.29-1.92 7.96-1.65 8.16 0.27 0.19 2.07 0.66 4 1.04 2.16 0.42 5.98 0.06 10-0.96 3.57-0.9 8.52-2.86 11-4.34 2.48-1.49 4.56-3.38 4.64-4.2 0.07-0.82 1.33-5.55 2.8-10.5 1.46-4.95 2.74-11.7 2.86-15 0.17-5.05-0.16-6.36-2.05-8.25-1.24-1.24-2.25-3.37-2.25-4.75 0-1.5-0.57-2.5-1.43-2.5-0.78 0-2.98 1.46-4.87 3.25zm-106.45 19.33c-0.69 0.23-1.02 0.87-0.75 1.42 0.3 0.59-1.33 1-4 1-2.47 0-6.41 0.44-8.75 0.98-2.34 0.55-5.49 1.22-7 1.5-1.74 0.33-4.22 2.35-6.75 5.52-2.2 2.75-3.77 5.68-3.5 6.5 0.28 0.82 1.29 1.68 2.25 1.89 1.43 0.33 1.34 0.51-0.5 1-1.24 0.34-2.25 1.29-2.25 2.11 0 0.83 0.89 1.5 2 1.5 1.1 0 2.68 0.23 3.5 0.5 1.27 0.42 1.31 1.09 0.32 4.25-0.65 2.06-1.66 4.32-2.25 5.01-0.59 0.7-2.19 1.42-3.57 1.61-1.37 0.18-0.25 0.4 2.5 0.49 2.75 0.09 9.05 0.62 14 1.18 4.95 0.57 9.12 1.35 9.27 1.75 0.15 0.39 2.18 0.43 4.5 0.08 2.33-0.35 10.31-0.98 17.73-1.41 7.43-0.44 14.63-0.75 16-0.7 1.38 0.04 4.75 0.38 7.5 0.74 3.51 0.46 6.04 0.21 8.5-0.85 1.93-0.84 4.96-2.9 6.75-4.58 2.35-2.22 4.22-3.07 6.75-3.07 1.93 0 3.51-0.34 3.51-0.75 0.01-0.41-3.7-2.45-8.25-4.53-4.54-2.07-10.4-5.11-13.01-6.75-3.13-1.95-4.58-3.48-4.25-4.47 0.27-0.82-0.06-1.69-0.75-1.93-0.69-0.24-4.62-0.69-8.75-1.02-6-0.46-8.4-1.17-12-3.52-3.43-2.24-6.05-3.05-11-3.43-3.7-0.29-6.44-0.95-6.35-1.55 0.08-0.58 0.08-1.01 0-0.97-0.08 0.04-0.71 0.27-1.4 0.5zm-98.25 23.68c-1.92 1.78-5.52 4.33-8 5.65-4.09 2.2-5.27 2.36-13 1.81-6.2-0.45-9.18-0.25-11 0.73-1.37 0.73-3.14 1.05-3.92 0.69-0.78-0.35-2.48-2.21-3.77-4.14-1.63-2.43-3.1-3.5-4.83-3.5-1.36 0-2.47 0.23-2.46 0.5 0.01 0.28-1.56 1.29-3.5 2.25-1.94 0.96-3.53 2.31-3.54 3-0.01 0.93-0.2 0.91-0.75-0.08-0.56-1.01-3.19-0.1-11.23 3.88-5.77 2.87-16.12 8.61-23 12.76-6.87 4.16-17.67 11.13-24 15.49-6.32 4.36-14.65 10.41-18.5 13.44l-7 5.52c4.65 3.67 7.46 5.63 9.25 6.74 3.13 1.93 3.48 1.94 9.5 0.38 3.44-0.89 9.29-1.68 13-1.75 3.71-0.07 6.75-0.47 6.75-0.88 0-0.41 0.56-0.75 1.25-0.75 0.69-0.01 7.78-2.09 15.75-4.65l14.5-4.64 36 1.28c9.53-5.9 12.88-7.06 18-7.75 3.85-0.52 7.9-1.48 9-2.14 1.92-1.15 1.91-1.17-0.25-0.65-1.24 0.3-2.24 0.21-2.22-0.2 0.02-0.41 3.28-2.65 7.25-4.98 3.97-2.33 13.75-8.4 21.72-13.5 12.97-8.29 14.46-9.53 14.16-11.77-0.19-1.37-0.98-3.18-1.76-4-0.78-0.82-1.19-2.29-0.91-3.25 0.32-1.1-0.33-2.31-1.74-3.26-1.24-0.83-2.92-1.49-3.75-1.47-0.82 0.02-3.52-0.87-6-1.97q-4.5-2-11-2.02c-5.95-0.01-6.8 0.26-10 3.23zm85 16.92c-1.37 0.58-4.24 1.78-6.36 2.68-2.12 0.9-4.59 2.44-5.5 3.42-1.45 1.59-1.04 1.55 3.66-0.33 2.92-1.17 5.62-2.53 6-3.01 0.39-0.49 2.73-1.53 5.2-2.31 3.21-1.02 3.78-1.44 2-1.46-1.37-0.02-3.62 0.44-5 1.01z"/>
		<path id="Path 4" class="s2" d="m410.83 31.91c-0.84 0.88-5.49 5.19-10.34 9.59-4.99 4.54-9.64 9.73-10.73 12-1.06 2.2-2.99 6.02-4.29 8.5-1.29 2.47-2.38 5.51-2.41 6.75-0.03 1.24-0.51 2.47-1.06 2.75-0.55 0.28-1 1.06-1.01 1.75 0 0.69 3.49 2.56 7.75 4.16 4.27 1.6 13.39 5.72 20.26 9.17 6.88 3.45 17.52 9.56 23.65 13.59l11.14 7.33c10.86-7.75 17.43-12.36 21.61-15.25 4.18-2.89 7.39-5.59 7.12-6-0.26-0.41-1.16-0.19-2 0.5-1.25 1.03-1.61 0.94-2.03-0.5-0.28-0.96-0.84-1.42-1.25-1.02-0.41 0.4-1.98-1.29-3.49-3.75-1.51-2.46-2.75-4.93-2.75-5.48 0-0.55-0.45-1-1-1-0.55 0-1.02-1.01-1.03-2.25-0.02-1.24 0.84-3.37 1.92-4.75 1.08-1.37 1.92-3.4 1.86-4.5-0.05-1.1 0.22-2.9 0.6-4 0.6-1.73-1.05-3.05-12.08-9.7-7.02-4.23-17.94-10.13-24.27-13.1-6.32-2.98-12.2-5.63-13.07-5.89-0.86-0.27-2.25 0.23-3.1 1.1zm-366.33 114.94c0.27 0.63 0.16 1.13-0.25 1.11-0.41-0.02-3.79 5.83-7.5 13-3.71 7.17-6.52 13.49-6.25 14.04 0.31 0.63 2.07 0.42 4.75-0.55 2.34-0.86 5.05-2.32 6.03-3.25 0.98-0.94 1.77-2.26 1.75-2.95-0.02-0.69 0.87-1.7 1.97-2.25 1.1-0.55 2.5-2.69 3.11-4.75 0.61-2.06 0.86-5.1 0.55-6.75-0.31-1.65-1.26-3.56-2.11-4.25-0.85-0.69-1.32-1.7-1.05-2.25 0.27-0.55 0.05-1.29-0.5-1.65-0.55-0.36-0.77-0.14-0.5 0.5zm499.42 24.57c-0.23 0.23-6.27 1.38-13.42 2.55-7.15 1.16-16.83 2.11-21.5 2.1-7.18-0.01-8.81 0.3-10.5 1.99-1.1 1.1-2.79 1.99-3.75 1.97-0.96-0.02-3.1-0.71-4.75-1.53-1.84-0.92-2.75-1.98-2.35-2.75q0.65-1.26-0.38-0.25c-0.57 0.55-4.76 5.28-9.32 10.5-4.56 5.22-14.07 15.91-21.12 23.75-8 8.88-12.64 14.81-12.33 15.75 0.27 0.82 1.17 1.5 2 1.5 0.82 0 2.17-1.13 3-2.5 0.82-1.38 1.95-2.5 2.5-2.5 0.55 0 1.23 0.9 1.5 2 0.27 1.1 0.95 2 1.5 2 0.55 0 1.23-0.68 1.5-1.5 0.39-1.18 1.04-1.28 3-0.5 1.37 0.55 4.19 0.99 6.25 0.99 2.06-0.01 4.67-0.28 5.79-0.59 1.12-0.32 3.53-2.53 5.36-4.91 2.47-3.22 4.64-4.78 8.46-6.08 2.83-0.96 9.64-3.72 15.14-6.13 8.03-3.53 11.63-4.53 18.26-5.09 5.3-0.44 8.25-0.33 8.25 0.31 0.01 0.55-0.67 2.01-1.5 3.25-1.46 2.17-1.4 2.25 1.49 2.25 1.74 0 2.99 0.52 2.98 1.25-0.01 0.69 3.37-3.59 7.5-9.5 4.14-5.91 7.86-10.74 8.27-10.74 0.41 0.01 4.4 4.17 8.86 9.25l8.12 9.24c9.09-0.49 9.31-0.64 10.2-4.25 0.51-2.06 1.65-7.8 2.53-12.75 0.88-4.95 1.81-10.24 2.07-11.75 0.26-1.51 0.13-2.67-0.28-2.56-0.41 0.1-3.45-0.39-6.75-1.09-3.3-0.71-7.24-1.92-8.75-2.69-1.63-0.83-5.74-1.41-10.08-1.41-4.04 0-7.52 0.19-7.75 0.42zm-460.42 5.77c-1.65 0.46-3.79 1.73-4.75 2.82-0.96 1.1-1.86 2.64-2 3.42-0.14 0.79 0.2 1.49 0.75 1.55 0.55 0.06 2.58-0.76 4.5-1.82 1.92-1.06 4.22-3 5.11-4.3 1-1.46 1.19-2.39 0.5-2.44-0.61-0.04-2.46 0.3-4.11 0.77zm285.8 13.9c0.39 0.97-1.37 2.43-5.62 4.66-3.4 1.79-8.66 3.75-11.68 4.35-4 0.8-6.52 0.8-9.25 0-3.18-0.93-3.86-0.85-4.5 0.51-0.67 1.46-1.42 1.48-7.48 0.25-3.7-0.75-6.74-1.02-6.75-0.61-0.01 0.41-1.59 0.75-3.52 0.75-2.53 0-4.4 0.85-6.75 3.07-1.79 1.68-4.82 3.74-6.75 4.58-2.48 1.07-4.95 1.31-8.5 0.83-2.75-0.38-6.57-0.68-8.5-0.67-1.93 0.02-10.7 0.55-19.5 1.18-8.8 0.64-16.79 1.13-17.75 1.08-0.96-0.04-1.53 0.38-1.25 0.93 0.27 0.55-0.85 1.22-2.5 1.5-1.65 0.28-3.56 0.2-4.25-0.16-0.69-0.36-0.91-0.36-0.5 0 0.41 0.36 0.07 1.34-0.75 2.16-0.82 0.82-3.3 2.18-5.5 3-2.2 0.82-4.42 1.39-4.93 1.25-0.51-0.14-4.67 3.66-9.25 8.44-5.69 5.94-9.9 9.39-13.32 10.91-3.52 1.57-6.78 2.2-11 2.12-3.3-0.05-10.05-1.08-15-2.27-6.88-1.66-11-2.07-17.5-1.72-5.63 0.3-9.34 1.01-11 2.12-1.38 0.91-5.88 2.15-10 2.75-5.54 0.8-8.94 1.97-13 4.49l-5.5 3.4-36-1.28c-22.48 7.2-29.56 9.28-30.25 9.29-0.69 0-1.26 0.34-1.28 0.75-0.02 0.41 0.89 1.65 2.03 2.75 1.14 1.1 2.05 3.01 2.03 4.25-0.02 1.24-0.73 3.94-1.59 6-0.86 2.06-2.66 5.21-4 7-1.78 2.37-2.1 3.42-1.19 3.88 0.69 0.34 2.71 0.34 4.5 0 1.8-0.35 3.7-1.53 4.25-2.63 0.75-1.5 2-2 5-2 2.2 0 4-0.45 4-1 0-0.55 1.46-0.99 3.25-0.98 1.79 0.02 5.5-1.14 8.25-2.57 3.11-1.62 5.85-2.38 7.25-2.02 1.24 0.31 3.49 1.34 5 2.29 1.51 0.95 4.77 1.79 7.25 1.88 2.59 0.1 7.04 1.38 10.5 3.03 5.31 2.54 7.1 2.87 15.56 2.87 9.07 0 9.74-0.15 13-2.88 1.89-1.58 6.48-4.39 10.19-6.25 3.71-1.85 7.2-3.37 7.75-3.37 0.55 0 3.36-1.18 6.25-2.62 5.19-2.58 5.41-2.6 18.75-1.79 7.43 0.45 16.2 0.81 19.5 0.8 4.04-0.01 7.64-0.75 11-2.26 2.75-1.24 7.25-3.76 10-5.6 2.75-1.84 8.49-4.51 12.75-5.94q7.75-2.59 19.75-3.59c8.72-0.73 13.71-1.69 18.25-3.51 3.44-1.39 7.15-2.51 8.25-2.49 1.1 0.01 4.25-0.59 7-1.34 2.75-0.76 7.48-1.95 10.5-2.65 3.02-0.7 7.64-2.34 10.25-3.65 2.61-1.3 4.86-2.82 5-3.38 0.16-0.66 2.06-0.48 5.25 0.48 2.75 0.84 5.68 1.53 6.5 1.55 0.83 0.02 1.8-1.21 2.17-2.74 0.6-2.53 1.2-2.85 7-3.65 3.48-0.49 8.35-0.99 10.83-1.13 2.48-0.13 6.52-0.57 9-0.97 2.48-0.4 7.65-1.82 11.5-3.14 3.85-1.32 8.01-2.4 9.25-2.39 1.24 0 2.69 0.8 3.22 1.76 0.54 0.96 0.69 2.09 0.34 2.5-0.36 0.41 1.91 0.75 5.02 0.75 5.51 0 5.66 0.07 5.17 2.5-0.27 1.37-0.16 2.53 0.25 2.58 0.41 0.04 1.65 0.22 2.75 0.41 1.44 0.24 4.13-1.96 9.58-7.83 4.18-4.49 9.24-10.07 11.25-12.41 2.02-2.34 3.33-4.43 2.92-4.64-0.41-0.22-10.88-3.41-23.25-7.09-12.38-3.69-23.63-6.57-25-6.4-1.38 0.17-3.12-0.09-3.88-0.57-0.99-0.63-1.23-0.48-0.82 0.54zm-352.49 66.72l-5.69 4.69c-1.08 13.18-1.11 22.06-0.76 28.25 0.35 6.19 1.06 12.26 1.58 13.5 0.51 1.24 0.96 1.69 1 1 0.03-0.69 1.07-1.54 2.31-1.9 1.24-0.36 3.82-1.34 5.75-2.19 1.92-0.85 3.95-1.57 4.5-1.62 0.62-0.05 0.82-2.95 0.53-7.56-0.26-4.11-0.49-11.3-0.5-15.98l-0.03-8.5 8.48-4c-9.26-6.98-11.74-9.34-11.5-9.75 0.25-0.41 0.35-0.72 0.23-0.69-0.11 0.04-2.77 2.18-5.9 4.75z"/>
		<path id="Path 6" class="s3" d="m427.5 275c-3.85 1.08-8.24 1.96-9.75 1.98-1.51 0.01-4.19 0.88-5.95 1.93-2.75 1.63-3.91 1.76-8.25 0.89-2.78-0.56-5.73-1.36-6.55-1.79-0.82-0.43-1.5-1.43-1.5-2.21 0-0.83-2.86 0.91-6.81 4.14-4.81 3.92-6.43 5.79-5.5 6.34 0.95 0.56 0.25 1.65-2.58 4-2.78 2.3-3.7 3.72-3.25 4.97 0.35 0.96 1.2 1.73 1.89 1.71 0.89-0.04 0.82 0.41-0.25 1.54-1.34 1.42-1.29 1.59 0.5 1.57 1.25-0.01-0.24 1.35-4 3.64-5.74 3.51-5.9 3.71-3.68 4.73 1.28 0.58 2.63 2.08 3 3.34 0.37 1.25 1.24 2.48 1.93 2.75 0.69 0.26 2.94-1.12 5-3.07 2.38-2.25 4.3-3.3 5.25-2.89 0.82 0.36 3.52 0.89 6 1.17 2.48 0.29 4.95 0.83 5.5 1.22 0.55 0.38 2.57 0.58 4.5 0.43 1.93-0.14 4.96-0.06 6.75 0.18 2.44 0.32 3.25 0.93 3.25 2.43 0 1.1 0.45 2.9 1 4 0.55 1.1 1.68 2 2.5 2 0.82 0 2.78-1.69 4.36-3.75l2.85-3.75c3.7 4.34 3.88 4.36 5.65 2.72 1.31-1.22 3.55-1.72 7.64-1.72 4.1 0 6.33-0.5 7.65-1.72 1.02-0.95 2.53-1.72 3.35-1.71 0.82 0.01 2.18-0.76 3-1.72 1.33-1.54 1.33-1.64 0-0.88-0.82 0.47-0.38-0.36 1-1.83 1.37-1.48 2.61-2.68 2.75-2.67 0.14 0.02 0.02 0.48-0.25 1.03-0.27 0.55-0.27 1 0 1 0.27 0 4.65-4.61 9.72-10.25 5.07-5.64 8.11-9.25 6.75-8.02-1.36 1.22-2.92 2.26-3.47 2.29-0.55 0.04-0.44-0.63 0.25-1.48 0.69-0.84 1.07-2.22 0.86-3.04-0.22-0.82-1.12-1.5-2-1.5-0.89 0-1.41-0.56-1.16-1.25 0.24-0.69-0.55-2.18-1.75-3.31-1.21-1.13-3.55-2.65-5.2-3.36-1.65-0.72-7.73-1.47-13.5-1.67-8.2-0.28-12.03 0.06-17.5 1.59zm-118.5 17.03c-2.48 0.44-7.65 2-11.5 3.47-3.85 1.47-7.54 3.01-8.19 3.42-0.66 0.41-3.82 1.07-7.03 1.47-3.2 0.4-6.94 1.11-8.3 1.58-1.37 0.46-6.98 1.78-12.48 2.92-5.5 1.14-14.39 2.53-19.75 3.09-5.36 0.56-12.9 1.02-16.75 1.02-5.81 0-7.55 0.41-10.25 2.39-2.95 2.17-4.44 2.43-15.91 2.75-12.43 0.35-12.75 0.42-17.25 3.61-2.53 1.79-5.38 3.25-6.34 3.25-0.96 0.01-3.21 0.91-5 2-1.79 1.1-3.81 3.13-4.5 4.52-0.69 1.38-2.38 2.94-3.75 3.46-1.38 0.52-4.3 1.24-6.5 1.6-2.2 0.36-7.82 1.73-12.5 3.04-4.68 1.31-10.07 3.06-12 3.88-1.93 0.82-4.04 2.51-4.71 3.75-0.66 1.24-1.92 4.05-2.81 6.25-0.88 2.2-2.36 4.7-3.29 5.55q-1.69 1.55-4.19 0.85c-2.05-0.57-2.14-0.72-0.5-0.83l2-0.13c-3.1-2.26-5.58-3.15-7.5-3.44-1.92-0.28-5.3 0.12-7.5 0.91-2.2 0.78-4.11 1.91-4.25 2.51-0.14 0.59 0.65 1.53 1.75 2.08 1.1 0.55 2 1.45 2 2 0 0.55-1.8 1.68-4 2.5-2.69 1.01-5.4 1.27-8.25 0.81-4.05-0.66-4.22-0.59-3.5 1.5 0.61 1.78 0.43 2.1-1 1.69-0.96-0.27-2.76-0.72-4-1-1.24-0.27-2.25-0.05-2.25 0.5 0 0.55 3.26 1.69 7.25 2.54 3.99 0.85 12.2 2.05 18.25 2.68 8.67 0.89 10.36 1.3 8 1.93-1.65 0.43-8.17 1.3-14.5 1.92-6.33 0.62-12.4 1.45-13.5 1.84-1.68 0.6-1.21 1.08 3 3.02 2.75 1.27 6.58 2.39 8.5 2.49 1.92 0.1 4.26 0.61 5.18 1.13 1.03 0.58 7.04 0.64 15.5 0.14 7.6-0.44 17.26-1.62 21.47-2.62 6.19-1.47 7.58-1.55 7.25-0.44-0.22 0.75-0.06 1.36 0.35 1.34 0.41-0.02 1.52-0.58 2.46-1.25 0.94-0.67 1.74-1.67 1.77-2.22 0.03-0.55 1.06-2.47 2.29-4.27 1.89-2.77 3.68-3.71 11.73-6.17 5.22-1.6 11.07-2.91 13-2.92 1.93-0.01 7.55-0.25 12.5-0.55 4.95-0.29 10.35-0.7 12-0.92 1.65-0.22 3.56-0.46 4.25-0.53 0.69-0.08 1.07-0.48 0.85-0.89-0.23-0.41 0.11-0.85 0.75-0.98 0.63-0.12 3.19-0.57 5.69-1 2.7-0.46 6.74-2.32 10-4.62 4.1-2.88 6.08-3.7 7.96-3.26 1.54 0.37 3.27-0.01 4.5-0.97 1.1-0.86 1.32-1.2 0.5-0.75-1.06 0.57-1.28 0.45-0.75-0.43 0.41-0.68 1.43-1.24 2.25-1.24 0.82 0 4.99-1.76 9.25-3.92 7.01-3.54 8.37-3.89 14.25-3.61 3.57 0.16 7.85 0.54 9.5 0.82q3 0.53 5-1.21c1.1-0.96 3.01-1.81 4.25-1.91 1.55-0.12 2.02 0.22 1.52 1.08-0.4 0.69 1.46-0.32 4.13-2.25 2.67-1.93 8.29-6.47 12.48-10.11 4.19-3.64 9.12-7.91 10.95-9.5 1.83-1.59 4.98-4.42 7-6.29 2.02-1.88 2.6-2.55 1.3-1.5-1.31 1.04-3.78 2.03-5.5 2.18-1.95 0.17-2.75-0.07-2.13-0.64 0.55-0.5 3.81-3.22 7.25-6.03 3.44-2.81 6.25-5.56 6.25-6.11 0-0.58-1.38-0.76-3.25-0.44-1.79 0.3-3.81 0.3-4.5 0-0.91-0.41-0.7-1.17 0.77-2.81 1.11-1.24 2.01-2.81 2-3.5-0.01-0.69-1.03-1.2-2.27-1.13-1.24 0.06-4.27 0.47-6.75 0.91zm-285.25 46.95c-1.62 0.94-1.54 1.33 1 5.06 1.51 2.22 2.86 4.02 3 4 0.14-0.02 0.02-0.49-0.25-1.04-0.27-0.55 0.63-1 2-1 1.38 0 2.27-0.45 2-1-0.27-0.55-0.05-1 0.5-1 0.55 0 1.67 1.12 2.5 2.5 0.83 1.37 1.95 2.5 2.5 2.5 0.55 0 1-1.01 1-2.25-0.01-1.24-1.02-3.51-2.25-5.06-1.6-2-3.41-2.94-6.25-3.27-2.2-0.26-4.79-0.01-5.75 0.56z"/>
		<path id="Path 8" fill-rule="evenodd" class="s4" d="m523.75 378.12c0.69-0.07 1.26 0.22 1.27 0.63 0.02 0.41-0.72 2.55-3.31 8.75l2.64-0.75c2.4-0.68 2.59-0.54 2.02 1.5-0.34 1.24-2.84 7.87-5.56 14.75-2.72 6.87-5.47 12.83-6.13 13.23-0.65 0.41-0.84 0.75-0.43 0.75 0.41 0.01-1.55 4.41-4.36 9.77-2.81 5.36-8.84 15.37-13.39 22.25-4.55 6.87-12.52 17.45-17.7 23.5-5.19 6.05-12.78 14.1-16.87 17.88-4.08 3.78-11.03 9.7-15.43 13.14-4.4 3.44-11.38 8.47-15.5 11.19-4.13 2.72-10.31 6.6-13.75 8.62-3.64 2.14-6.77 3.36-7.49 2.92q-1.23-0.74-0.5 0.5 0.73 1.25-2.51 2.49c-1.79 0.68-3.59 1.13-4 1-0.41-0.13-0.75 0.21-0.75 0.76 0 0.55-0.79 1.25-1.75 1.56-1.42 0.45-1.51 0.31-0.48-0.75 0.69-0.72 1.26-1.65 1.25-2.06-0.01-0.41-1.26-0.48-2.77-0.14-1.98 0.44-2.96 0.16-3.5-1-0.57-1.23 0.14-1.98 3-3.17 2.06-0.86 4.43-2.19 5.25-2.97 0.82-0.77 3.41-2.43 5.74-3.69 2.33-1.25 5.82-3.63 7.77-5.28 1.95-1.65 3.53-3.56 3.52-4.25-0.02-0.69 3.91-4.06 8.72-7.49 4.81-3.43 10.48-7.82 12.59-9.75 2.12-1.93 4.72-5.53 5.79-8.01 1.06-2.48 1.67-5.18 1.35-6-0.47-1.21-1.57-1.35-5.78-0.72-3.79 0.57-5.5 0.43-6.31-0.5-0.62-0.7-1.12-2.85-1.12-4.78 0-2.66-0.69-4.05-2.88-5.8-1.59-1.26-4.35-2.95-6.14-3.75-3.23-1.44-3.28-1.42-9.5 3.83-3.44 2.9-10.07 7.58-14.75 10.38-4.68 2.81-10.98 6.35-14 7.87-3.02 1.52-10.68 4.99-17 7.72-6.32 2.73-13.98 5.84-17 6.92-3.02 1.08-6.18 2.78-7 3.78-0.82 1.01-3.98 2.51-7 3.35-3.02 0.84-6.74 1.79-8.25 2.11-2.5 0.54-2.73 0.95-2.5 4.59 0.14 2.2 0.25 4.01 0.25 4.02 0 0.01-7.2 0.65-16 1.41-8.8 0.77-17.13 1.85-18.5 2.42-2.41 0.99-2.37 1.03 1 1.1 1.93 0.04 5.07 0.64 7 1.32 1.93 0.69 4.06 1.58 4.75 1.99 0.69 0.41 0.97 1.3 0.63 1.99-0.34 0.69-0.01 2.3 0.75 3.58 1.17 1.99 1.15 2.71-0.15 5-0.84 1.47-3.09 3.42-5 4.34-3.25 1.55-3.35 1.73-1.48 2.72 1.1 0.58 2.23 0.86 2.5 0.62 0.27-0.24 6.8-0.68 14.5-0.97 7.7-0.3 14.9-0.84 16-1.21 1.77-0.6 1.91-0.37 1.25 2-0.67 2.4-0.52 2.62 1.5 2.17 1.24-0.28 5.4-1.15 9.25-1.94 3.85-0.78 7.79-1.68 8.75-1.99 1.14-0.37 1.75-0.05 1.75 0.93 0 0.83-0.56 2.08-1.25 2.78-0.69 0.71-4.4 1.89-8.25 2.62-3.85 0.73-8.89 2.29-11.21 3.46-2.31 1.18-4 2.48-3.75 2.89 0.25 0.41-0.33 0.68-1.29 0.6-0.96-0.09-2.43 0.12-3.25 0.46-0.82 0.35-6.68 1.32-13 2.16-6.32 0.84-17.57 1.95-25 2.46-8 0.55-21.45 0.57-33 0.06-10.72-0.48-23.32-1.38-28-1.99-4.68-0.62-13.22-2.03-19-3.15-5.78-1.12-15.9-3.59-22.5-5.49-6.6-1.91-15.6-4.75-20-6.31-4.4-1.56-12.28-4.73-17.5-7.03-5.22-2.31-12.99-5.95-17.25-8.11-4.26-2.15-7.75-4.36-7.75-4.91 0-0.55-0.34-0.89-0.75-0.75-0.41 0.14-1.76-0.76-3-2-1.24-1.24-3.15-2.25-4.25-2.25-1.1 0-2-0.45-2-1 0-0.55-0.42-0.89-0.93-0.75-0.51 0.14-1.67-0.65-2.57-1.75-0.91-1.1-1.35-1.33-0.99-0.5 0.37 0.83-0.31 0.37-1.51-1-1.2-1.38-1.8-1.82-1.35-1 0.59 1.06 0.47 1.28-0.41 0.75-0.68-0.41-1.02-1.43-0.74-2.25 0.33-0.98-1.59-3.07-5.5-6-3.3-2.48-6-5.18-6-6 0-0.82 0.45-1.5 1-1.5 0.55 0 1.22-0.9 1.5-2 0.45-1.8 1.02-1.56 5.75 2.51 2.89 2.47 5.59 4.5 6 4.5 0.41-0.01 0.75-0.91 0.75-2.01 0-1.99 0.01-1.99 2.75 0.02 1.51 1.11 7.14 4.94 12.5 8.5 9.7 6.45 9.76 6.47 12.5 4.81 1.51-0.92 4.64-3.74 11.17-10.83l-5.62-2c-3.08-1.1-6.1-2.77-6.7-3.71-0.89-1.39-0.53-2.3 1.9-4.77 1.65-1.69 3.56-3.05 4.25-3.04 0.69 0.01 2.04-0.85 3-1.92 1.66-1.85 2.43-1.89 15.25-0.9 11.66 0.91 14.86 1.56 23.5 4.8 5.5 2.06 13.15 4.67 17 5.8 3.85 1.12 9.93 2.74 13.5 3.6 3.57 0.85 10.78 2.35 16 3.33 7.67 1.44 14.79 1.78 37 1.76 21.61-0.02 29.64-0.4 37.5-1.77 5.5-0.96 14.39-2.86 19.75-4.21 5.46-1.39 10.52-2.15 11.5-1.74 1.24 0.52 1.53 0.37 1-0.5-0.57-0.94-0.16-1 1.75-0.23q2.5 1 2.5 0c0-0.55 0.56-0.74 1.25-0.42 0.69 0.32 4.18-0.41 7.75-1.64 3.57-1.22 11.45-4.38 17.5-7.02 6.05-2.63 14.6-6.74 19-9.12 4.4-2.38 9.57-5.41 11.5-6.73 1.93-1.32 6.81-4.92 10.85-7.99 6.49-4.94 7.1-5.67 5.25-6.33-1.16-0.41-2.1-0.98-2.1-1.25 0-0.27 4.87-5.34 10.83-11.25 5.95-5.91 14.01-15.02 17.91-20.25 3.89-5.23 9.35-13.32 12.11-18 2.77-4.68 5.98-9.63 7.12-11 1.15-1.38 2.08-2.84 2.06-3.25-0.02-0.41 2.33-1.86 5.22-3.21 2.89-1.36 6.26-2.26 7.5-2 2.18 0.44 2.2 0.58 0.75 3.96-0.82 1.93-1.05 3.27-0.5 3 0.55-0.27 1-0.16 1.01 0.25 0 0.41 1.01 1.24 2.25 1.84 1.23 0.59 4.49 0.86 7.24 0.59 3.77-0.38 5.99 0 9 1.52 2.93 1.49 4.29 1.73 5.09 0.91 0.59-0.61 1.38-2.01 1.73-3.11 0.36-1.1 1.79-3.24 3.17-4.75 1.49-1.64 4.11-3.05 6.47-3.5 3.59-0.68 4.07-1.14 5.15-4.95 0.65-2.31 1.9-4.39 2.78-4.63 0.89-0.24 2.17-0.49 2.86-0.55zm-363.58 92.27c2.38 0.13 5.34 0.77 6.58 1.43 1.24 0.65 3.04 0.91 4 0.59 1.47-0.5 1.51-0.43 0.25 0.48q-1.53 1.09-0.25 1.09c0.69 0.01 1.25 0.47 1.25 1.02 0 0.55-3.04 1.69-6.75 2.54-3.71 0.85-7.65 1.77-8.75 2.05-1.79 0.45-1.82 0.4-0.25-0.54 1.41-0.85 1.55-1.54 0.75-3.55-0.55-1.37-1.04-3.14-1.08-3.92-0.06-1.06 1.03-1.36 4.25-1.19z"/>
		<path id="Path 9" class="s5" d="m517 365c0 0.55-1.91 2.1-4.25 3.45-2.34 1.35-6.5 4.73-9.25 7.5-2.97 3-6.22 5.27-8 5.61-2.34 0.45-3.33 0.1-4.5-1.6-1.08-1.57-2.13-2-3.75-1.57-1.59 0.43-2.62 0.04-3.5-1.33-1.15-1.8-1.5-1.51-4.47 3.75-1.77 3.13-3.23 6.03-3.25 6.44-0.02 0.41 0.65 0.75 1.47 0.75 1.33 0 1.33 0.39 0 3.5-0.82 1.93-1.05 3.27-0.5 3 0.55-0.27 1-0.16 1.01 0.25 0 0.41 1.01 1.24 2.25 1.84 1.23 0.59 4.49 0.86 7.24 0.59 3.77-0.38 5.99 0 9 1.52 2.93 1.49 4.29 1.73 5.09 0.91 0.59-0.61 1.38-2.01 1.73-3.11 0.36-1.1 1.79-3.24 3.17-4.75 1.49-1.64 4.11-3.05 6.47-3.5 3.59-0.68 4.09-1.16 5.25-5.03 0.71-2.35 1.85-4.27 2.54-4.25 0.69 0.02 1.7-1.1 2.25-2.47 0.55-1.38 1.02-3.29 1.04-4.25 0.04-1.57-0.13-1.59-1.64-0.25-1.55 1.37-1.64 1.3-1.05-0.75 0.47-1.62 0.23-2.25-0.85-2.25-0.93 0-1.5-0.94-1.5-2.5 0-1.38-0.45-2.5-1-2.5-0.55 0-1 0.45-1 1zm-285.5 67.48c-2.75 0.72-7.25 2.26-10.01 3.41-4.23 1.78-5.04 1.87-5.25 0.61-0.14-0.87-1.29-1.5-2.74-1.5-1.81 0-2.79 0.76-3.54 2.75-0.6 1.58-3.05 3.96-5.75 5.6-2.59 1.57-8.99 4.21-14.21 5.87-7.52 2.39-10.64 2.91-15 2.5-3.57-0.33-6.73-0.01-9 0.91-2.28 0.93-7.33 1.43-14.5 1.44-6.05 0.01-13.03 0.43-15.5 0.94-2.47 0.5-11.47 1.19-20 1.52-8.53 0.33-16.17 0.85-17 1.14-1.2 0.43-1.09 0.71 0.5 1.37 1.6 0.66 1.3 0.83-1.5 0.86-1.92 0.01-4.74 0.95-6.25 2.07-1.51 1.11-3.65 3.83-4.75 6.03-1.1 2.2-1.99 4.79-1.97 5.75 0.02 0.96 2.08 4.23 4.59 7.25 3.08 3.72 4.44 6.23 4.21 7.77-0.2 1.42 0.57 3.11 2.06 4.5 1.62 1.51 2.5 1.83 2.75 0.98 0.22-0.77 2.4 0.5 5.61 3.26 2.89 2.47 5.59 4.5 6 4.5 0.41-0.01 0.75-0.91 0.75-2.01 0-1.99 0.01-1.99 2.75 0.02 1.51 1.11 7.14 4.94 12.5 8.5 9.7 6.45 9.76 6.47 12.5 4.81 1.51-0.92 4.64-3.74 6.96-6.25l4.21-4.58c-8.7-3.1-11.72-4.77-12.32-5.71-0.89-1.39-0.53-2.29 1.9-4.74 1.65-1.67 4.01-3.26 5.25-3.54 1.24-0.28 2.47-1.19 2.75-2.01 0.4-1.2-0.5-1.5-4.5-1.5-2.75 0-5.01-0.34-5.02-0.75-0.01-0.41 1.9-1.11 4.25-1.54 2.35-0.43 5.84-1.28 7.77-1.88 1.93-0.6 4.51-1.48 5.75-1.96 1.93-0.75 2.11-1.22 1.25-3.37-0.55-1.38-1-3.18-1-4 0-0.82 0.9-1.73 2-2 1.1-0.27 2-0.95 2-1.5 0-0.55-0.75-1-1.67-1-0.91 0-1.48-0.22-1.25-0.49 0.23-0.27 5.14-1.9 10.92-3.63 5.78-1.72 13.2-3.65 16.5-4.28 5.33-1.01 5.97-1.39 5.75-3.37-0.14-1.25 0.3-2.24 1-2.24 0.69-0.01 4.85-1.61 9.25-3.57 4.4-1.95 8.56-3.75 9.25-3.99 0.69-0.24 1.25 0.25 1.25 1.07 0 0.82 0.34 1.5 0.75 1.5 0.41-0.01 4.35-2.73 8.75-6.05 4.4-3.32 9.69-6.58 11.77-7.24 2.07-0.67 3.92-1.77 4.12-2.46 0.19-0.69 0.3-1.21 0.23-1.16-0.07 0.04-2.37 0.67-5.12 1.39zm186 33.13c-2.75 2.48-8.82 6.9-13.5 9.81-4.68 2.91-11.43 6.77-15 8.58-3.57 1.81-11.68 5.52-18 8.25-6.32 2.73-13.98 5.84-17 6.92-3.02 1.08-6.18 2.78-7 3.78-0.82 1.01-3.98 2.51-7 3.35-3.02 0.84-6.74 1.79-8.25 2.11-2.5 0.54-2.73 0.95-2.5 4.59 0.14 2.2 0.25 4.01 0.25 4.02 0 0.01-7.2 0.65-16 1.41-8.8 0.77-17.13 1.85-18.5 2.42-2.41 0.99-2.37 1.03 1 1.1 1.93 0.04 5.07 0.64 7 1.32 1.93 0.69 4.06 1.58 4.75 1.99 0.69 0.41 0.97 1.3 0.63 1.99-0.34 0.69-0.01 2.3 0.75 3.58 1.17 1.99 1.15 2.71-0.15 5-0.84 1.47-3.09 3.42-5 4.34-3.25 1.55-3.35 1.73-1.48 2.72 1.1 0.58 2.23 0.86 2.5 0.62 0.27-0.24 6.8-0.68 14.5-0.97 7.7-0.3 14.9-0.84 16-1.21 1.77-0.6 1.91-0.37 1.25 2-0.67 2.4-0.52 2.62 1.5 2.17 1.24-0.28 5.51-1.18 9.5-2 3.99-0.83 17.26-5.35 29.5-10.05 12.24-4.71 23.33-9.32 24.65-10.25 1.32-0.94 4.34-2.83 6.72-4.2 2.38-1.38 5.92-3.85 7.88-5.5 1.95-1.65 3.54-3.56 3.53-4.25-0.02-0.69 3.91-4.06 8.72-7.49 4.81-3.43 10.48-7.82 12.59-9.75 2.12-1.93 4.72-5.53 5.79-8.01 1.06-2.48 1.67-5.18 1.35-6-0.47-1.21-1.57-1.35-5.78-0.72-3.79 0.57-5.5 0.43-6.31-0.5-0.62-0.7-1.12-2.85-1.12-4.78 0-2.66-0.69-4.05-2.88-5.8-1.59-1.26-4.46-2.96-6.39-3.77-1.93-0.81-3.5-1.45-3.5-1.41 0 0.04-2.25 2.1-5 4.59z"/>
		<path id="Path 10" class="s6" d="m523.33 327.75c-0.59 0.96-2.14 1.69-3.45 1.61-1.31-0.07-5.26 1.28-8.77 3-5.64 2.77-6.8 3.85-9.75 9.14-1.84 3.3-4.14 6.41-5.11 6.92-0.96 0.5-2.65 1.01-3.75 1.12-1.1 0.11-2.56 0.26-3.25 0.33-0.69 0.07-1.81 1.27-2.5 2.67-0.69 1.41-1.81 2.3-2.5 2-0.69-0.3-1.81-0.22-2.5 0.18-0.69 0.4-1.81 0.85-2.5 1-0.69 0.15-1.28-0.28-1.32-0.97-0.03-0.69-1.1 2.12-2.37 6.25-1.28 4.12-3.88 11.55-5.8 16.5-1.91 4.95-4.44 10.91-5.62 13.25-1.18 2.34-1.94 4.59-1.71 5 0.24 0.41 0.69-0.26 1-1.5 0.39-1.55 2.51-3.15 6.82-5.17 5.46-2.54 6.63-3.61 9.25-8.41 2.76-5.05 3.1-5.34 4.25-3.58 0.87 1.34 1.93 1.73 3.5 1.3 1.62-0.43 2.67 0 3.75 1.57 1.17 1.7 2.16 2.05 4.5 1.6 1.78-0.34 5.03-2.61 8-5.61 2.75-2.77 6.91-6.15 9.25-7.5 2.34-1.35 4.25-2.9 4.25-3.45 0-0.55 0.45-1 1-1 0.55 0 1 1.12 1 2.5 0 1.56 0.57 2.5 1.5 2.5 1.08 0 1.32 0.63 0.85 2.25-0.6 2.07-0.51 2.13 1.16 0.75 1.7-1.41 1.77-1.28 1.15 2.25-0.45 2.55-0.28 3.83 0.53 4 0.86 0.18 0.72 1.43-0.5 4.5-1.26 3.16-1.37 4.25-0.44 4.23 0.69 0 1.77-0.34 2.41-0.75 0.63-0.4 2.05-3.43 3.15-6.73 1.11-3.3 3.15-11.18 4.54-17.5 1.4-6.32 3.03-15.32 3.62-20 0.6-4.68 0.83-8.73 0.53-9-0.31-0.27-0.54-0.05-0.53 0.5 0.01 0.55-1.66 0.93-3.72 0.85-2.06-0.08-4.2-0.18-4.75-0.23-0.62-0.06-0.72-1.61-0.25-4.1 0.7-3.75 0.59-4.02-1.55-4.02-1.27 0-2.78 0.79-3.37 1.75zm-282.58 71.28c-0.96 0.53-2.31 0.63-2.99 0.22q-1.23-0.74-0.5 0.5c0.46 0.77 0.17 1.25-0.76 1.25-0.83 0-5.89 2.54-11.25 5.64-5.36 3.11-17.63 9.54-27.25 14.29-9.63 4.75-22.9 10.54-29.5 12.87-6.6 2.32-14.7 4.92-18 5.77-3.3 0.85-10.28 2.19-15.5 2.98-5.23 0.79-13.55 1.44-18.5 1.44-4.95 0-13.28-0.73-18.5-1.62-5.23-0.89-10.51-1.56-11.75-1.49q-2.27 0.13-1.56-1.13c0.41-0.74-0.05-0.63-1.12 0.25-1 0.82-2.55 3.25-3.44 5.38-1.21 2.87-3.33 5-8.13 8.17-3.58 2.35-7.63 4.58-9 4.95-1.82 0.48-2.43 1.25-2.24 2.83 0.14 1.19 0.03 1.61-0.25 0.92-0.41-1-0.79-1-1.9 0-1.17 1.06-1.09 1.67 0.5 4 1.04 1.51 1.91 3.09 1.93 3.5 0.03 0.41-0.76 0.1-1.75-0.69-0.98-0.8 1.13 1.61 4.71 5.34 3.57 3.73 9.2 9.41 12.5 12.6 3.3 3.2 8.92 8.16 12.5 11.03 3.57 2.86 9.76 7.4 13.75 10.09 5.33 3.59 6.88 4.28 5.84 2.63-0.77-1.24-3.92-4.16-7-6.5-3.07-2.34-5.59-4.93-5.59-5.75 0-0.82 0.56-1.66 1.25-1.86q1.24-0.37-1.25-3.09c-1.38-1.5-2.5-3.93-2.5-5.41 0-1.71-1.54-4.5-4.23-7.66-2.33-2.74-4.24-5.77-4.25-6.73-0.01-0.96 0.88-3.55 1.98-5.75 1.1-2.2 3.24-4.92 4.75-6.03 1.51-1.12 4.32-2.06 6.25-2.07 2.8-0.03 3.1-0.2 1.5-0.86-1.59-0.66-1.7-0.94-0.5-1.37 0.82-0.29 8.47-0.81 17-1.14 8.52-0.33 17.52-1.02 20-1.52 2.47-0.51 9.45-0.93 15.5-0.94 7.17-0.01 12.22-0.51 14.5-1.44 2.27-0.92 5.43-1.24 9-0.91 4.36 0.41 7.48-0.11 15-2.5 5.22-1.66 11.62-4.3 14.21-5.87 2.7-1.64 5.15-4.02 5.75-5.6 0.75-1.99 1.73-2.75 3.54-2.75 1.56 0 2.5 0.57 2.5 1.5 0 1.26 0.85 1.16 5.25-0.6 2.89-1.15 7.61-2.73 10.5-3.5 4.07-1.09 5.14-1.12 4.77-0.15-0.27 0.69-2.18 1.79-4.25 2.46-2.08 0.66-7.37 3.92-11.77 7.24-4.4 3.32-8.34 6.04-8.75 6.05-0.41 0-0.75-0.68-0.75-1.5 0-0.82-0.56-1.31-1.25-1.07-0.69 0.24-4.85 2.04-9.25 3.99-4.4 1.96-8.56 3.56-9.25 3.57-0.7 0-1.14 0.99-1 2.24 0.22 1.98-0.42 2.36-5.75 3.37-3.3 0.63-10.73 2.56-16.5 4.28-5.78 1.73-10.69 3.36-10.92 3.63-0.23 0.27 0.34 0.49 1.25 0.49 0.92 0 1.67 0.45 1.67 1 0 0.55-0.45 1-1 1-0.55 0-0.99 0.34-0.99 0.75 0.01 0.41 1.25 0.67 2.75 0.58 1.51-0.09 3.98 0.47 5.49 1.25 1.51 0.78 3.54 1.15 4.5 0.83 1.43-0.49 1.47-0.42 0.25 0.37-1.3 0.84-1.27 1.05 0.25 1.59 0.97 0.35 6.78-1.12 13-3.28 6.19-2.15 16.65-6.22 23.25-9.05 6.6-2.83 18.75-8.65 27-12.95 8.25-4.3 19.95-10.86 26-14.58 6.05-3.72 15.5-9.71 21-13.3 5.5-3.59 10.45-6.94 11-7.44q1-0.91 0-0.68c-0.55 0.12-1.79-0.07-2.75-0.43-0.96-0.36-1.53-1.11-1.25-1.66 0.27-0.55 0.05-1-0.5-1-0.55 0-1.34-0.15-1.75-0.34-0.41-0.19-1.81-0.75-3.11-1.25-2.25-0.86-2.04-1.13 4-5.18l6.36-4.27c-26.51 0.2-27.2 0.31-32.5 3.2-4.83 2.62-5.87 2.85-8.5 1.86-1.65-0.61-4.46-2.22-6.25-3.57-1.79-1.35-3.36-2.44-3.5-2.42-0.14 0.02-1.04 0.47-2 1zm169.75 59.37c-2.2 1.85-8.73 6.69-14.5 10.75-5.78 4.06-16.13 10.14-23 13.51-6.88 3.37-17 7.77-22.5 9.77-5.5 2-10.9 4.01-12 4.47-1.6 0.66-1.35 0.8 1.25 0.71 1.78-0.06 3.25-0.45 3.25-0.86 0-0.41 0.56-0.49 1.25-0.17 0.69 0.32 4.17-0.41 7.75-1.64 3.57-1.22 11.45-4.38 17.5-7.02 6.05-2.63 14.6-6.74 19-9.12 4.4-2.38 9.57-5.41 11.5-6.73 1.92-1.32 6.81-4.92 10.85-7.99 6.49-4.94 7.1-5.67 5.25-6.33-1.16-0.41-1.89-1.2-1.64-1.75 0.26-0.55 0.37-0.99 0.25-0.98-0.11 0.01-2.01 1.53-4.21 3.38zm-34.4 75.42c-15.58 5.98-17.49 6.97-18.25 9.43-0.47 1.51-1.64 2.96-2.6 3.22-0.96 0.27-5.01 1.17-9 2-3.99 0.84-8.71 2.43-10.5 3.53-1.79 1.09-2.58 1.99-1.75 1.99 0.82 0.01 6.22-1.14 12-2.54 5.77-1.41 16.57-4.56 24-7 7.42-2.44 17.31-6.36 21.97-8.7 4.66-2.34 8.6-4.81 8.75-5.5 0.2-0.89-0.44-1.03-2.23-0.5-1.82 0.55-2.84 0.29-3.75-0.93-1.13-1.53-2.75-1.1-18.64 5z"/>
		<path id="Path 11" class="s7" d="m463.19 60.19c-0.51 1.27-0.76 2.87-0.56 3.56 0.2 0.69-0.55 2.49-1.66 4-1.12 1.51-2.02 3.76-2 5 0.01 1.24 0.48 2.25 1.03 2.25 0.55 0 1 0.45 1 1 0 0.55 1.24 3.02 2.75 5.48 1.51 2.46 3.08 4.15 3.49 3.75 0.41-0.4 0.97 0.06 1.25 1.02 0.38 1.31 0.89 1.5 2.01 0.75 0.82-0.55 1.84-0.82 2.25-0.6 0.41 0.22 3.98-1.92 7.94-4.75l7.19-5.15c-7.27-6.27-12.08-10.12-15.38-12.62-3.3-2.49-6.53-4.86-7.19-5.27-0.73-0.46-1.54 0.15-2.12 1.58zm48.81 142.79c-1.92 0.41-8.23 2.78-14 5.26-5.77 2.49-12.28 5.06-14.45 5.71-2.88 0.88-4.73 2.37-6.84 5.54-1.6 2.38-3.87 4.59-5.05 4.91-1.19 0.31-3.85 0.58-5.91 0.59-2.06 0-4.88-0.44-6.25-0.99-1.96-0.78-2.61-0.68-3 0.5-0.27 0.82-0.95 1.5-1.5 1.5-0.55 0-1.23-0.9-1.5-2-0.27-1.1-0.95-2-1.5-2-0.55 0-1.68 1.13-2.5 2.5-0.82 1.38-2.18 2.5-3 2.5-0.82 0-1.84-0.66-2.25-1.46-0.56-1.08-4.06 2.04-13.5 12-7.01 7.4-12.64 13.69-12.5 13.97 0.14 0.29 4.98 1.04 10.75 1.69 8.29 0.92 11.45 0.91 15-0.09 2.48-0.69 10.13-1.68 17-2.2 6.88-0.51 13.18-1.19 14-1.51 0.82-0.32 3.98-0.92 7-1.34 4.57-0.64 6.98-1.84 14.27-7.16 4.82-3.52 11.37-7.75 14.55-9.4 3.19-1.65 6.94-4.35 8.35-6 1.41-1.65 4.43-5.7 6.72-9 2.29-3.3 4.15-6.56 4.13-7.25-0.01-0.72-1.3-1.25-3.02-1.25-2.89 0-2.95-0.08-1.49-2.25 0.83-1.24 1.5-2.59 1.5-3-0.01-0.41-2.6-0.7-5.76-0.64-3.16 0.07-7.33 0.46-9.25 0.87zm60 3.02c0 0.55-1.8 1-4 1-2.89 0-4 0.42-4 1.5 0 0.82 1.46 2.67 3.25 4.11 3.02 2.43 3.29 2.48 3.85 0.75 0.33-1.02 0.85-3.32 1.15-5.11 0.31-1.79 0.37-3.25 0.15-3.25-0.22 0-0.4 0.45-0.4 1zm-198.5 15.04c-2.75 1.06-7.48 2.44-10.5 3.06-3.02 0.62-7.75 1.24-10.5 1.38-2.75 0.15-7.85 0.66-11.33 1.14-5.8 0.81-6.4 1.12-7 3.65-0.37 1.53-1.34 2.76-2.17 2.74-0.82-0.02-3.75-0.71-6.5-1.55-3.19-0.96-5.09-1.14-5.25-0.48-0.14 0.56-2.39 2.08-5 3.38-2.61 1.31-7.23 2.95-10.25 3.65-3.02 0.7-7.75 1.89-10.5 2.65-2.75 0.75-5.9 1.35-7 1.34-1.1-0.02-4.81 1.1-8.25 2.49-4.54 1.82-9.53 2.78-18.25 3.51q-12 1-19.75 3.59c-4.26 1.43-10 4.1-12.75 5.94-2.75 1.84-7.25 4.36-10 5.6-3.36 1.51-6.96 2.25-11 2.26-3.3 0.01-12.07-0.35-19.5-0.8-13.34-0.81-13.56-0.79-18.75 1.79-2.89 1.44-5.7 2.62-6.25 2.62-0.55 0-4.04 1.52-7.75 3.37-3.71 1.86-8.3 4.67-10.19 6.25-3.26 2.73-3.93 2.88-13 2.88-8.46 0-10.25-0.33-15.56-2.87-3.46-1.65-7.91-2.93-10.5-3.03-2.47-0.09-5.74-0.93-7.25-1.88-1.51-0.95-3.76-1.98-5-2.29-1.4-0.36-4.14 0.4-7.25 2.02-2.75 1.43-6.46 2.59-8.25 2.57-1.79-0.01-3.25 0.43-3.25 0.98 0 0.55-1.69 0.98-3.75 0.95-2.8-0.03-4.16 0.54-5.37 2.25-1.29 1.83-2.57 2.3-6.24 2.3-3.97 0-5.24 0.56-9.1 4-2.47 2.2-4.52 3.77-4.55 3.5-0.03-0.27-0.83 0.49-1.77 1.71-0.95 1.21-2.05 1.89-2.46 1.5-0.41-0.39-0.99-0.03-1.29 0.79-0.3 0.82 0.14 5.77 0.98 11 0.83 5.23 1.95 11.07 2.47 13q0.96 3.5 3.77 4.83c2.48 1.17 3.4 1.06 7.81-0.88 2.75-1.22 6.8-3.53 9-5.15 2.7-1.98 5.63-3.11 9-3.46 2.95-0.31 7.77 0.13 11.75 1.07 3.71 0.87 9.56 1.6 13 1.61 4.59 0.01 9.04-0.94 16.75-3.58 5.78-1.98 14.78-4.47 20-5.53 5.22-1.07 11.3-1.94 13.5-1.95 2.2 0 5.8-0.44 8-0.97 2.2-0.54 7.6-3.41 12-6.39 4.4-2.99 10.93-6.41 14.5-7.62 5.38-1.81 7.79-2.08 14-1.56 4.13 0.34 12 0.89 17.5 1.22 9.93 0.6 10.07 0.58 20.5-3.45 5.78-2.23 12.3-4.52 14.5-5.08 2.2-0.56 10.07-1.68 17.5-2.51 7.43-0.82 16.2-2.43 19.5-3.57 3.3-1.15 10.05-4.17 15-6.73 8.15-4.2 9.8-4.68 17.5-5.11 6.71-0.37 11.24 0.1 21.5 2.24 7.15 1.48 14.57 3.07 16.5 3.53l3.5 0.82c34.34-34.04 40.35-40.62 39-40.57-1.1 0.03-2.56 0-3.25-0.07-0.78-0.09-1.06-1.07-0.75-2.64 0.49-2.43 0.34-2.5-5.17-2.5-3.11 0-5.38-0.34-5.02-0.75 0.35-0.41 0.2-1.54-0.34-2.5-0.57-1.03-2.1-1.73-3.72-1.7-1.51 0.02-5 0.92-7.75 1.99zm-346.9 77.63c-0.42 0.46-1.07 0.86-1.43 0.89-0.37 0.03-2.24 0.75-4.17 1.6-1.92 0.85-4.51 1.83-5.75 2.19-1.24 0.36-2.51 1.66-2.83 2.9-0.31 1.24-0.09 4.16 0.5 6.5 0.96 3.79 1.29 4.14 3.08 3.25 1.1-0.55 4.7-1 8-1 5.89 0 6-0.05 5.96-2.75-0.03-1.51-0.62-5.37-1.32-8.58-0.69-3.2-1.61-5.45-2.04-5z"/>
		<path id="Path 12" class="s8" d="m507.5 233.32c-3.85 2.35-9.93 6.47-13.5 9.15-5.07 3.81-7.71 5.07-12 5.73-3.02 0.46-9.55 1.29-14.5 1.84-4.95 0.55-12.38 1.53-16.5 2.18-4.13 0.65-11.77 1.14-17 1.1-5.23-0.04-11.07-0.54-13-1.11l-3.5-1.03c-20.93 21.12-25.77 26.14-24.27 24.79 2.39-2.16 2.7-2.24 2.5-0.61-0.13 1.03 0.45 2.22 1.27 2.65 0.82 0.43 3.98 1.24 7 1.81 4.84 0.91 5.83 0.81 8.25-0.89 1.51-1.06 3.87-1.93 5.25-1.93 1.37 0 6.21-0.95 10.75-2.11 6.61-1.69 10.14-2.01 17.75-1.6 5.23 0.28 10.85 1.09 12.5 1.8 1.65 0.71 3.99 2.22 5.2 3.35 1.2 1.13 1.99 2.62 1.75 3.31-0.25 0.69 0.23 1.25 1.05 1.25 0.82 0 1.73 0.68 2 1.5 0.27 0.82-0.06 2.2-0.75 3.04-1 1.24-1 1.54 0 1.5 0.69-0.02 3.81-2.85 6.94-6.29 3.13-3.44 10.69-12.55 16.81-20.25 6.11-7.7 13.98-17.82 17.47-22.5 3.5-4.68 6.73-9.06 7.18-9.75 0.51-0.77 0.35-1.24-0.41-1.23-0.68 0.01-4.39 1.95-8.24 4.3zm-196.5 30.63c-1.37 0.43-6.1 2.63-10.5 4.89-4.4 2.26-10.7 5.04-14 6.19-3.3 1.14-12.07 2.75-19.5 3.57-7.43 0.83-15.3 1.95-17.5 2.51-2.2 0.56-8.72 2.85-14.5 5.08-10.43 4.03-10.57 4.05-20.5 3.45-5.5-0.33-13.37-0.88-17.5-1.22-6.21-0.52-8.62-0.25-14 1.56-3.57 1.21-10.1 4.63-14.5 7.62-4.4 2.98-9.8 5.85-12 6.39-2.2 0.53-5.8 0.97-8 0.97-2.2 0.01-8.28 0.88-13.5 1.95-5.22 1.06-14.22 3.55-20 5.53-7.71 2.64-12.16 3.59-16.75 3.58-3.44-0.01-9.29-0.74-13-1.61-3.98-0.94-8.8-1.38-11.75-1.07-3.37 0.35-6.3 1.48-9 3.46-2.2 1.62-6.25 3.94-9 5.16-4.09 1.82-5.45 2.02-7.5 1.11-1.37-0.62-2.64-1-2.81-0.85-0.18 0.16 0.42 2.98 1.32 6.28 0.9 3.3 3.29 9.34 5.32 13.43 2.02 4.08 5.7 9.52 8.17 12.09 2.47 2.56 6.97 5.89 10 7.39 3.03 1.51 6.06 2.48 6.75 2.16 0.69-0.31 1.03-0.12 0.75 0.43-0.28 0.56 0.7 0.92 2.25 0.81 1.51-0.1 3.76 0.12 5 0.5 1.98 0.61 2.16 0.43 1.5-1.5-0.72-2.09-0.55-2.16 3.5-1.5 2.85 0.46 5.56 0.2 8.25-0.81 2.2-0.82 4-1.95 4-2.5 0-0.55-0.9-1.45-2-2-1.1-0.55-1.89-1.49-1.75-2.08 0.14-0.6 2.05-1.73 4.25-2.51 2.2-0.79 5.58-1.19 7.5-0.91 1.92 0.29 4.4 1.18 5.5 1.98l2 1.46c-3.64 0.24-3.55 0.39-1.5 0.96q2.5 0.7 4.19-0.85c0.93-0.85 2.41-3.35 3.29-5.55 0.89-2.2 2.15-5.01 2.81-6.25 0.67-1.24 2.78-2.93 4.71-3.75 1.93-0.82 7.32-2.57 12-3.88 4.68-1.31 10.3-2.68 12.5-3.04 2.2-0.36 5.13-1.08 6.5-1.6 1.38-0.52 3.06-2.08 3.75-3.46 0.69-1.39 2.71-3.42 4.5-4.52 1.79-1.09 4.04-1.99 5-2 0.96 0 3.81-1.46 6.34-3.25 4.5-3.19 4.82-3.26 17.25-3.61 11.47-0.32 12.96-0.58 15.91-2.75 2.7-1.98 4.44-2.39 10.25-2.39 3.85 0 11.39-0.46 16.75-1.02 5.36-0.56 14.25-1.95 19.75-3.09 5.5-1.14 10.9-2.44 12-2.88 1.1-0.44 4.93-1.13 8.5-1.54 3.57-0.4 6.95-1.09 7.5-1.53 0.55-0.43 4.6-2.12 9-3.73 4.4-1.62 10.59-3.23 13.75-3.58 4.27-0.47 5.76-0.31 5.77 0.62 0.01 0.69-0.89 2.26-2 3.5-1.47 1.64-1.68 2.4-0.77 2.81 0.69 0.3 2.71 0.3 4.5 0 1.87-0.32 3.25-0.14 3.25 0.44 0 0.55-2.81 3.3-6.25 6.11-3.44 2.81-6.7 5.53-7.25 6.03-0.62 0.57 0.16 0.81 2.06 0.64 1.96-0.18 5.57-2.31 10-5.9 3.82-3.09 13.65-11.86 21.84-19.5 8.2-7.63 15.49-14.78 16.2-15.88 1.22-1.89 1.04-2.01-3.4-2.24-2.59-0.13-9.65-1.36-15.7-2.73-7.11-1.62-13.83-2.48-19-2.43-4.4 0.04-9.12 0.42-10.5 0.85zm-280.9 49.8c-0.07 0.86-2.06 1.24-6.35 1.23-3.66-0.01-7.03 0.54-8.13 1.33-1.81 1.29-1.81 1.55-0.15 7.27 0.95 3.25 2.8 8.28 4.13 11.17 2.23 4.87 2.56 5.17 4.65 4.14 1.24-0.61 3.94-0.83 6-0.5 2.29 0.37 4.35 1.49 5.29 2.86 1.47 2.16 1.51 2.09 0.91-1.75-0.34-2.2-1.89-9.17-3.43-15.5-1.55-6.32-2.86-10.94-2.92-10.25z"/>
		<path id="Path 13" class="s9" d="m531.75 248.46c-0.41 0.85-11.18 17.63-23.94 37.29l-23.18 35.75c-5.1 24.8-6.59 32.56-6.61 33.25-0.01 0.69 0.54 1.12 1.23 0.97 0.69-0.15 1.81-0.6 2.5-1 0.69-0.4 1.81-0.48 2.5-0.18 0.69 0.3 1.81-0.59 2.5-2 0.69-1.4 1.81-2.6 2.5-2.67 0.69-0.07 2.15-0.22 3.25-0.33 1.1-0.11 2.79-0.62 3.75-1.12 0.97-0.51 3.27-3.62 5.11-6.92 2.95-5.29 4.11-6.37 9.75-9.14 3.51-1.72 7.46-3.07 8.77-3 1.31 0.08 2.88-0.65 3.5-1.61 0.62-0.97 2.13-1.76 3.37-1.75 2.08 0 2.19 0.3 1.5 4.02-0.47 2.49-0.37 4.04 0.25 4.1 0.55 0.05 2.68 0.15 4.74 0.23 2.05 0.08 3.92-0.3 4.15-0.85 0.24-0.55 0.93-7.52 1.55-15.5 0.82-10.45 0.84-18.69 0.08-29.5-0.58-8.25-1.99-20.63-3.12-27.5-1.14-6.88-2.37-12.85-2.74-13.29-0.36-0.43-1-0.09-1.41 0.75zm-201.25 106.15c-1.53 1.18-3.37 1.4-7.77 0.93-5.26-0.57-6.2-0.35-10.5 2.39-2.6 1.66-5.18 3.05-5.73 3.09-0.55 0.04-1.56-0.63-2.25-1.48-0.69-0.84-1.81-1.43-2.5-1.29-0.69 0.14-1.25-0.48-1.25-1.38 0-1.25-0.94-0.89-4 1.56-2.2 1.75-9.62 7.25-16.5 12.22-6.87 4.96-19.7 13.83-28.5 19.69-8.8 5.87-15.66 10.67-15.25 10.67 0.41-0.01 2.1-0.69 3.75-1.51 2.82-1.41 3.19-1.35 6.25 0.95 1.79 1.35 4.6 2.96 6.25 3.57 2.63 0.99 3.67 0.76 8.5-1.86 5.3-2.89 5.99-3 19-3.1l13.5-0.1c-12.4 8.32-12.61 8.59-10.36 9.45 1.3 0.5 2.7 1.06 3.11 1.25 0.41 0.19 1.28 0.34 1.92 0.34 0.64 0 0.87 0.34 0.51 0.75-0.36 0.41 0.13 1.28 1.08 1.92 1.4 0.95 2.43 0.76 5.24-0.93 1.93-1.16 8.56-5.85 14.75-10.43 6.19-4.57 15.86-12.09 21.5-16.7 5.64-4.62 13.49-11.25 17.44-14.75 3.96-3.5 8.74-8.16 10.62-10.36l3.42-4c-7.15 0.52-11.93-0.03-15.23-0.9-3.3-0.86-8.02-1.56-10.5-1.55-2.51 0.01-5.38 0.7-6.5 1.56zm-127.53 36.78c-5.04 4.97-6.14 6.55-4.97 7.16 0.88 0.45 1.18 0.39 0.72-0.14-0.43-0.5 2.03-3.72 5.47-7.16 3.44-3.44 6.02-6.25 5.75-6.25-0.28 0-3.41 2.87-6.97 6.39zm-183.46-0.7c-1.1 0.25-1.88 0.87-1.75 1.38 0.13 0.51-0.51 0.93-1.43 0.93-0.92 0-1.81 0.34-1.97 0.75-0.17 0.41 0.86 3.67 2.28 7.25 1.42 3.57 5.18 11.67 8.35 18 3.16 6.32 9.37 16.9 13.78 23.5 4.42 6.6 11 15.49 14.63 19.75 3.63 4.26 6.83 7.52 7.1 7.25 0.28-0.27-0.35-1.74-1.39-3.25-1.59-2.33-1.67-2.94-0.5-4 1.11-1 1.49-1 1.9 0 0.28 0.69 0.39 0.27 0.25-0.92-0.19-1.58 0.42-2.35 2.24-2.84 1.38-0.37 5.36-2.54 8.86-4.83 4.76-3.11 6.9-5.29 8.53-8.66 1.79-3.72 2.59-4.45 4.64-4.24 1.36 0.15-1.13-1.24-5.53-3.09-4.4-1.84-10.25-4.49-13-5.88-2.75-1.4-8.6-5.25-13-8.57-4.4-3.32-11.82-10.02-16.5-14.89-4.67-4.87-10.06-10.65-11.96-12.84-1.9-2.2-3.4-4.33-3.35-4.74 0.06-0.41 0.04-0.7-0.04-0.63-0.08 0.06-1.05 0.32-2.14 0.57z"/>
		<path id="Path 14" fill-rule="evenodd" class="s10" d="m382.75 286.05c0.69-0.03 1.25 0.4 1.25 0.95 0 0.55-1.6 2.24-3.55 3.75-1.95 1.51-3.52 3.31-3.5 4 0.03 0.69 0.73 1.48 1.55 1.75 1.22 0.41 1.27 0.79 0.25 2.04-1.05 1.3-0.93 1.55 0.75 1.53 1.25-0.01-0.24 1.35-4 3.64-5.74 3.51-5.9 3.71-3.68 4.73 1.28 0.58 2.63 2.08 3 3.34 0.37 1.25 1.24 2.48 1.93 2.75 0.69 0.26 2.94-1.12 5-3.07 2.38-2.25 4.3-3.3 5.25-2.89 0.82 0.36 3.52 0.89 6 1.17 2.48 0.29 4.95 0.83 5.5 1.22 0.55 0.38 2.57 0.58 4.5 0.43 1.93-0.14 4.96-0.06 6.75 0.18 2.44 0.32 3.25 0.93 3.25 2.43 0 1.1 0.45 2.9 1 4 0.55 1.1 1.68 2 2.5 2 0.82 0 2.78-1.69 7.21-7.5l1.9 2.22c1.8 2.12 1.98 2.14 3.75 0.5 1.31-1.22 3.55-1.72 7.64-1.72 3.96 0 6.38-0.52 7.65-1.65 1.02-0.9 2.75-1.83 3.85-2.06 1.1-0.22 1.9-0.83 1.78-1.35-0.13-0.52 0.95-2.07 2.38-3.44 2.49-2.39 2.56-2.4 1.48-0.25-0.63 1.24-1.59 2.25-2.14 2.25-0.55 0-0.8 0.34-0.55 0.75 0.25 0.41-4.82 5.96-11.25 12.33-6.44 6.36-15.52 14.94-20.2 19.05-4.68 4.12-12.66 10.72-17.75 14.68-7.39 5.74-9.15 6.74-8.73 4.94 0.29-1.24 2.2-11.36 4.25-22.49 2.05-11.13 3.5-20.23 3.23-20.21-0.27 0.02-2.3 2.32-4.5 5.11-2.2 2.79-8.27 9.7-13.5 15.35-5.23 5.65-13.1 13.56-17.5 17.59-4.4 4.02-6.79 5.98-2.6 1.4l-4.7 0.34c-2.59 0.18-7.4-0.37-10.7-1.24-3.3-0.86-7.91-1.57-10.25-1.58-2.34-0.01-5.49 0.73-7 1.64-2.14 1.3-3.86 1.5-7.75 0.92-4.51-0.68-5.49-0.45-10 2.31-2.75 1.68-5.45 3.09-6 3.13-0.55 0.04-1.56-0.63-2.25-1.48-0.69-0.84-1.76-1.43-2.38-1.29-0.61 0.14-1.29-0.31-1.5-1-0.2-0.69 8.07-8.1 18.38-16.47 10.31-8.38 25.73-21.39 34.25-28.92 8.52-7.52 18.43-16.4 22-19.73 3.57-3.32 7.06-6.06 7.75-6.08zm-103.35 52.32c1.62 0.09 2.15 0.56 1.72 1.54-0.34 0.77-4.44 4.42-9.12 8.1-4.68 3.69-14.57 11.2-22 16.69-7.43 5.49-19.8 14.03-27.5 18.99-7.7 4.96-17.38 11.02-21.5 13.47-7.33 4.37-6.83 3.8 22.72-25.6 16.62-16.53 30.01-30.4 29.75-30.81-0.26-0.41 2.79-0.58 6.78-0.37 3.99 0.21 8.6 0.65 10.25 0.98 2.18 0.43 3.48 0.09 4.77-1.26 0.98-1.02 2.83-1.79 4.13-1.73zm-247.5 5.63c0.6 0 1.89 1.15 2.85 2.56 0.96 1.41 2.2 2.36 2.75 2.11 0.55-0.26 1.51 2.3 2.13 5.68 0.63 3.38 0.95 6.38 0.73 6.65-0.23 0.27-3.21-2.3-6.64-5.72-3.42-3.43-6.22-6.91-6.22-7.75 0-0.92 0.9-1.53 2.25-1.53 1.24 0 1.98-0.45 1.65-1-0.33-0.55-0.11-1 0.5-1zm214.85 0.05c0.14-0.03 0.25 0.18 0.25 0.45 0 0.27-2.47 1.85-5.5 3.5-3.14 1.71-5.71 2.57-6 2-0.28-0.55 0.29-1.27 1.25-1.61 0.96-0.33 3.55-1.43 5.75-2.45 2.2-1.01 4.11-1.86 4.25-1.89zm-16.51 6.95c0.97 0 1.97 0.34 2.22 0.75 0.26 0.41-4.81 3.31-11.25 6.45-6.44 3.13-16.66 7.69-22.71 10.11-6.05 2.43-15.95 6.02-22 7.98-6.05 1.96-16.4 4.91-23 6.56-6.6 1.65-17.18 3.98-23.5 5.17-6.77 1.27-17.67 2.38-26.5 2.71-14.17 0.51-15.25 0.42-19.5-1.72-2.47-1.25-7.32-4.35-10.77-6.89-3.45-2.54-6.26-4.96-6.25-5.37 0.01-0.41 3.4-0.75 7.52-0.75 6.12 0 8.47 0.49 12.75 2.64 2.89 1.46 6.83 2.72 8.75 2.81 1.93 0.08 4.26 0.58 5.18 1.1 1.03 0.58 7.04 0.64 15.5 0.14 7.6-0.44 17.3-1.57 21.55-2.5 5.83-1.27 7.62-1.38 7.25-0.44-0.26 0.69-0.14 1.24 0.27 1.22 0.41-0.02 1.52-0.58 2.46-1.25 0.94-0.67 1.74-1.67 1.77-2.22 0.03-0.55 1.06-2.47 2.29-4.27 1.89-2.77 3.68-3.71 11.73-6.17 5.22-1.6 11.07-2.91 13-2.92 1.93-0.01 7.55-0.25 12.5-0.55 4.95-0.29 10.35-0.7 12-0.92 1.65-0.22 3.56-0.46 4.25-0.53 0.69-0.08 1.07-0.48 0.85-0.89-0.23-0.41 0.11-0.85 0.75-0.98 0.63-0.12 3.21-0.57 5.72-1 2.67-0.45 6.82-2.33 9.99-4.52 2.98-2.06 6.22-3.75 7.18-3.75zm-218.95 23c2.89 5.23 6.71 11.64 8.49 14.25 2.5 3.69 2.77 4.47 1.19 3.5-1.42-0.87-2.25-0.93-2.75-0.18-0.4 0.59-1.51 1.38-2.47 1.75-0.96 0.38-1.75 0.57-1.74 0.43 0-0.14-0.87-2.73-1.93-5.75-1.06-3.02-2.86-8.99-4-13.25-1.15-4.26-2.08-8.31-2.07-9 0.01-0.69 2.38 3.02 5.28 8.25z"/>
	</g>
</svg>